<svg id="Layer_1" data-name="Layer 1" xmlns="http://www.w3.org/2000/svg" viewBox="0 0 512 511.25"><defs><style>.cls-1{fill:#f29c1f;}.cls-2{fill:#f0c419;}.cls-3{fill:#f3d55b;}.cls-4{fill:#f5efca;}.cls-5{fill:#e64c3c;}</style></defs><title>email</title><g id="Page-1"><path id="Shape" class="cls-1" d="M450.21,158.1v-61A35.31,35.31,0,0,0,414.9,61.79H339.42l-60.91-53a35.4,35.4,0,0,0-45,0l-60.91,53H97.1A35.31,35.31,0,0,0,61.79,97.1v61L0,211.86V476.69A35.31,35.31,0,0,0,35.31,512H476.69A35.31,35.31,0,0,0,512,476.69V211.86Z" transform="translate(0 -0.75)"/><path class="cls-2" d="M512,211.86V476.69A35.31,35.31,0,0,1,476.69,512h-7.33l-160-132.41L450.21,263Z" transform="translate(0 -0.75)"/><path class="cls-3" d="M469.36,512H42.64l160-132.41,30.81-25.52a35.43,35.43,0,0,1,45,0l30.81,25.52Z" transform="translate(0 -0.75)"/><path class="cls-2" d="M202.68,379.59,42.64,512H35.31A35.31,35.31,0,0,1,0,476.69V211.86L61.79,263Z" transform="translate(0 -0.75)"/><path class="cls-4" d="M450.21,97.1V263L309.32,379.59l-30.81-25.52a35.43,35.43,0,0,0-45,0l-30.81,25.52L61.79,263V97.1A35.31,35.31,0,0,1,97.1,61.79H414.9A35.31,35.31,0,0,1,450.21,97.1Z" transform="translate(0 -0.75)"/><path class="cls-5" d="M354.8,116.91a31.86,31.86,0,0,0-46.86-1.37l-51.94,54-51.94-53.92A31.85,31.85,0,0,0,157.2,117a29.54,29.54,0,0,0,4.2,42.49l58.94,47L167.1,261.76A16.76,16.76,0,0,0,168,286a18.13,18.13,0,0,0,23.32.68L256,235l64.71,51.68A18.13,18.13,0,0,0,344,286a16.76,16.76,0,0,0,.88-24.2l-53.25-55.28,58.94-47.07a29.55,29.55,0,0,0,4.2-42.5Z" transform="translate(0 -0.75)"/></g></svg>