<svg viewBox="0 0 400 600" xmlns="http://www.w3.org/2000/svg">
  <defs>
    <linearGradient id="keyboardGrad" x1="0%" y1="0%" x2="100%" y2="100%">
      <stop offset="0%" style="stop-color:#374151;stop-opacity:1" />
      <stop offset="100%" style="stop-color:#1F2937;stop-opacity:1" />
    </linearGradient>
  </defs>
  <rect width="400" height="600" fill="url(#keyboardGrad)"/>
  <rect x="50" y="150" width="300" height="200" fill="#6B7280" rx="15"/>
  <rect x="70" y="170" width="40" height="30" fill="#FFFFFF" rx="5"/>
  <rect x="120" y="170" width="40" height="30" fill="#FFFFFF" rx="5"/>
  <rect x="170" y="170" width="40" height="30" fill="#FFFFFF" rx="5"/>
  <rect x="220" y="170" width="40" height="30" fill="#FFFFFF" rx="5"/>
  <rect x="270" y="170" width="40" height="30" fill="#FFFFFF" rx="5"/>
  <text x="90" y="190" text-anchor="middle" fill="#1F2937" font-size="12">ض</text>
  <text x="140" y="190" text-anchor="middle" fill="#1F2937" font-size="12">ص</text>
  <text x="190" y="190" text-anchor="middle" fill="#1F2937" font-size="12">ث</text>
  <text x="240" y="190" text-anchor="middle" fill="#1F2937" font-size="12">ق</text>
  <text x="290" y="190" text-anchor="middle" fill="#1F2937" font-size="12">ف</text>
  <rect x="80" y="100" width="240" height="40" fill="#1F2937" rx="10"/>
  <text x="200" y="125" text-anchor="middle" fill="#FBBF24" font-size="16" font-weight="bold">لوحة المفاتيح العربية</text>
  <rect x="60" y="400" width="280" height="120" fill="#1F2937" rx="12" opacity="0.9"/>
  <text x="200" y="440" text-anchor="middle" fill="#FBBF24" font-size="18">Arabic Keyboard</text>
  <text x="200" y="470" text-anchor="middle" fill="#FFFFFF" font-size="14">Advanced Features</text>
  <text x="200" y="490" text-anchor="middle" fill="#FFFFFF" font-size="12">Mobile App</text>
</svg>